<svg xmlns="http://www.w3.org/2000/svg" viewBox="0 0 32 32" width="32" height="32" role="img" aria-label="Swarmind favicon">
  <title>Swarmind</title>
  <defs>
    <linearGradient id="bg" x1="0" y1="0" x2="1" y2="1">
      <stop offset="0%" stop-color="#0F172A"/>
      <stop offset="100%" stop-color="#1E293B"/>
    </linearGradient>
    <linearGradient id="s" x1="0" y1="0" x2="1" y2="1">
      <stop offset="0%" stop-color="#67E8F9"/>
      <stop offset="100%" stop-color="#06B6D4"/>
    </linearGradient>
  </defs>
  <rect width="32" height="32" rx="6" fill="url(#bg)"/>
  <polygon points="16,3 28,9.5 28,22.5 16,29 4,22.5 4,9.5" fill="none" stroke="#06B6D4" stroke-width="1.5" stroke-opacity="0.6"/>
  <path d="M 22 11 C 22 8, 19 6.5, 16 7.5 C 12 9, 10 12.5, 12 15 C 13.5 17, 16 17, 17 19 C 18.5 21, 18 24, 16 25 C 13 26, 10.5 24.5, 10.5 22"
        fill="none" stroke="url(#s)" stroke-width="2.2" stroke-linecap="round" stroke-linejoin="round"/>
  <circle cx="16" cy="7.5"  r="1.4" fill="#22D3EE"/>
  <circle cx="12" cy="15"   r="1.4" fill="#22D3EE"/>
  <circle cx="16" cy="25"   r="1.4" fill="#F59E0B"/>
</svg>
